<?xml version="1.0" encoding="utf-8"?>
<!-- Generator: Adobe Illustrator 21.0.0, SVG Export Plug-In . SVG Version: 6.00 Build 0)  -->
<svg version="1.1" id="Layer_1" xmlns="http://www.w3.org/2000/svg" xmlns:xlink="http://www.w3.org/1999/xlink" x="0px" y="0px"
	 viewBox="0 0 320 120" style="enable-background:new 0 0 320 120;" xml:space="preserve">
<style type="text/css">
	.st0{fill:#FFFFFF;}
	.st1{fill:#F58025;}
	.st2{fill:#C41230;}
	.st3{fill:#EEB111;}
	.st4{fill:#00A8CB;}
	.st5{fill:#781D7E;}
</style>
<g>
	<g>
		<path class="st0" d="M2.2,108.6v-3h2.6V93.7H2.2v-3H12v3H9.4v11.8h5.3V100h3.5v8.5H2.2z"/>
		<path class="st0" d="M20.3,108.6v-3H23V93.7h-2.7v-3h10.1v3h-2.7v11.8h2.7v3H20.3z"/>
		<path class="st0" d="M33.2,108.6v-3h2.2V93.7h-2.2v-3h8.2c1.8,0,3.2,0.1,4,0.3c0.9,0.2,1.6,0.7,2.3,1.5c0.6,0.8,1,1.8,1,2.8
			c0,1.7-0.8,3-2.5,3.7c2.1,0.8,3.2,2.2,3.2,4.3c0,1.2-0.3,2.2-1,3c-0.7,0.8-1.5,1.4-2.6,1.7c-1,0.3-2.5,0.5-4.4,0.5H33.2z M40,97.8
			h1.3c0.9,0,1.6-0.2,2-0.5c0.4-0.3,0.6-0.9,0.6-1.6c0-0.7-0.2-1.2-0.6-1.5c-0.4-0.3-1.1-0.4-2.2-0.4H40V97.8z M40,105.6h1.3
			c1.2,0,2-0.2,2.5-0.5c0.5-0.3,0.7-0.9,0.7-1.8c0-0.9-0.3-1.5-0.8-1.9c-0.5-0.4-1.3-0.5-2.4-0.5H40V105.6z"/>
		<path class="st0" d="M70.2,105.6v3h-5.4l-4-7.8h-2v4.8h2.2v3h-9.3v-3H54V93.7h-2.5v-3h10.8c2,0,3.5,0.5,4.4,1.5
			c0.9,1,1.3,2.2,1.3,3.5c0,2-1,3.5-3.1,4.4l2.9,5.4H70.2z M58.7,97.9h1.6c2,0,3-0.7,3-2.1c0-0.7-0.2-1.2-0.7-1.6
			c-0.4-0.3-1.1-0.5-1.9-0.5h-2V97.9z"/>
		<path class="st0" d="M89.9,105.6v3h-8.8v-3h2.3l-0.8-3.1h-4.6l-1,3.1h2.4v3h-7.9v-3h2.2l3.5-11.8h-2.4v-3h11.7v3H84l3.8,11.8H89.9
			z M81.8,99.9l-1.5-5.4l-1.6,5.4H81.8z"/>
		<path class="st0" d="M110.4,105.6v3h-5.4l-4-7.8h-2v4.8h2.2v3h-9.3v-3h2.5V93.7h-2.5v-3h10.8c2,0,3.5,0.5,4.4,1.5
			c0.9,1,1.3,2.2,1.3,3.5c0,2-1,3.5-3.1,4.4l2.9,5.4H110.4z M98.9,97.9h1.6c2,0,3-0.7,3-2.1c0-0.7-0.2-1.2-0.7-1.6
			c-0.4-0.3-1.1-0.5-1.9-0.5h-2V97.9z"/>
		<path class="st0" d="M115.1,108.6v-3h2.5v-4.8l-4.8-7h-2.2v-3h8.9v3h-1.8l2.6,4.4l2.7-4.4h-1.8v-3h7.9v3h-2.2l-4.6,7v4.8h2.5v3
			H115.1z"/>
		<path class="st0" d="M146.8,90.4c3.1,0,5.5,0.9,7.3,2.7c1.8,1.8,2.7,4,2.7,6.5c0,2.6-0.9,4.7-2.7,6.5c-1.8,1.8-4.2,2.7-7.3,2.7
			c-3.2,0-5.6-0.9-7.4-2.7c-1.7-1.8-2.6-4-2.6-6.4c0-2.6,0.9-4.7,2.6-6.5C141.3,91.3,143.7,90.4,146.8,90.4z M146.8,93.7
			c-1.4,0-2.5,0.5-3.5,1.5c-1,1-1.4,2.5-1.4,4.5c0,1.8,0.5,3.2,1.4,4.2c0.9,1.1,2.1,1.6,3.5,1.6c1.4,0,2.5-0.5,3.5-1.5
			c1-1,1.4-2.5,1.4-4.5c0-1.7-0.5-3.1-1.4-4.2C149.4,94.2,148.2,93.7,146.8,93.7z"/>
		<path class="st0" d="M158,108.6v-3h2.6V93.7H158v-3h16v5.5h-3.4v-2.5h-5.4v4.1h3.9v3h-3.9v4.7h2.8v3H158z"/>
		<path class="st0" d="M188.2,108.7l-5.3-15h-2.1v-3h9.1v3h-2.3l3,9l3-9h-2.3v-3h7.9v3h-2.2l-5.1,15H188.2z"/>
		<path class="st0" d="M201.1,108.6v-3h2.7V93.7h-2.7v-3h10.1v3h-2.7v11.8h2.7v3H201.1z"/>
		<path class="st0" d="M232.3,105.6v3h-5.4l-4-7.8h-2v4.8h2.2v3h-9.3v-3h2.5V93.7h-2.5v-3h10.8c2,0,3.5,0.5,4.4,1.5
			c0.9,1,1.3,2.2,1.3,3.5c0,2-1,3.5-3.1,4.4l2.9,5.4H232.3z M220.8,97.9h1.6c2,0,3-0.7,3-2.1c0-0.7-0.2-1.2-0.7-1.6
			c-0.5-0.3-1.1-0.5-1.9-0.5h-2V97.9z"/>
		<path class="st0" d="M244.1,102.6v-3h8.4c0,2.2-0.4,3.9-1.2,5.2c-0.8,1.3-1.9,2.3-3.4,3c-1.5,0.7-3.2,1.1-5,1.1
			c-3.2,0-5.7-0.9-7.4-2.6c-1.7-1.7-2.6-3.9-2.6-6.6c0-1.9,0.4-3.5,1.3-4.9c0.9-1.4,2-2.5,3.5-3.2c1.4-0.7,3-1.1,4.7-1.1
			c2.4,0,4.3,0.6,5.6,1.7v-1.5h3v6.3h-3c-0.3-1.1-0.9-1.9-1.9-2.5c-0.9-0.6-2-0.9-3-0.9c-1.4,0-2.6,0.5-3.6,1.5
			c-1,1-1.5,2.4-1.5,4.2c0,2,0.5,3.6,1.5,4.7c1,1.1,2.3,1.6,3.7,1.6c1.1,0,2-0.3,2.7-0.8c0.7-0.5,1.2-1.3,1.5-2.2H244.1z"/>
		<path class="st0" d="M253.7,108.6v-3h2.7V93.7h-2.7v-3h10.1v3h-2.7v11.8h2.7v3H253.7z"/>
		<path class="st0" d="M266.4,108.6v-3h2.4V93.7h-2.4v-3h7.5l6.6,11.1v-8.1h-2.3v-3h8v3h-2.5v15h-4L272,95.5v10.1h2.2v3H266.4z"/>
		<path class="st0" d="M288.4,108.6v-3h2.7V93.7h-2.7v-3h10.1v3h-2.7v11.8h2.7v3H288.4z"/>
		<path class="st0" d="M318.8,105.6v3H310v-3h2.3l-0.8-3.1h-4.6l-1,3.1h2.4v3h-7.9v-3h2.2l3.5-11.8h-2.4v-3h11.7v3h-2.4l3.8,11.8
			H318.8z M310.7,99.9l-1.5-5.4l-1.6,5.4H310.7z"/>
	</g>
	<g>
		<path class="st1" d="M227.2,70.4c-3.8-2.1-7.6-3.5-11.3-4V47.8c-1.8-0.1-3.7-0.1-5.5,0.1v25.3c8.1,0.1,17.4,5.2,23.2,10.3v-8.8
			c-1.9-1.5-3.9-2.9-5.9-4C227.6,70.6,227.5,70.6,227.2,70.4"/>
		<path class="st2" d="M215.9,40.3v7.6v18.6c3.7,0.5,7.5,1.9,11.3,4v-5.2V50v-5.7C223.4,42.2,219.6,40.8,215.9,40.3z"/>
		<path class="st3" d="M245,39.2V29c-3.8,1.1-7.9,3.2-11.8,6.1c-2,1.4-4,3-5.9,4.8v4.3c1.9-1,3.9-1.9,5.9-2.6
			C237.1,40.2,241.1,39.4,245,39.2z"/>
		<path class="st4" d="M245,39.2c-3.9,0.2-7.9,1-11.8,2.5c-2,0.7-4,1.6-5.9,2.6v0.1c0.2,0.1,0.3,0.2,0.5,0.3c2,1.1,4,2.5,5.9,4v4.1
			v7.3v7.7c5.6-2,11.3-2.7,16.8-2.2V39.3C248.7,39.1,246.8,39.1,245,39.2z"/>
		<path class="st5" d="M227.8,44.6c-0.2-0.1-0.3-0.2-0.5-0.3v26.1c0,0,0.4,0.2,0.5,0.3c2,1.1,4,2.5,5.9,4v-7V48.6
			C231.7,47.1,229.8,45.8,227.8,44.6z"/>
	</g>
</g>
</svg>
