<svg xmlns="http://www.w3.org/2000/svg" viewBox="0 0 1600 455.21"><title>kanopy logo black</title><g id="Layer_2" data-name="Layer 2"><g id="Layer_1-2" data-name="Layer 1"><path d="M86.49,242.27l59.68-60.69c5.57-6.08,12.14-11.13,12.14-18.72,0-10.62-11.13-11.63-21.75-11.63H128V129H244.29v22.26c-29.84,2-48.55,16.18-72.33,40l-28.82,28.33,65.24,84c14.17,18.21,28.33,32.37,52.1,33.89v22.25H143.14V337.36h4.55c4.55,0,17.7,0,17.7-11.64,0-6.07-8.09-15.68-10.62-19.22l-46-57.15-25.29,26.3v45.52c0,15.68,5.57,16.19,17.2,16.19h9.1v22.25H0V337.36H22.26c10.11,0,17.7,0,17.7-15.68V41c0-9.61-6.07-11.13-22.76-11.13H0V7.08L83.45,0V242.27Z"/><path d="M526.11,341.91c-20.23,17.7-29.84,24.78-50.58,24.78-30.35,0-38.44-23.27-40-39.45h-3c-18.21,26.3-47,39.45-81.43,39.45-56.65,0-69.3-33.38-69.3-59.18,0-22.75,12.14-70.3,150.22-94.57V193.21c0-6.07-.5-49.06-54.12-49.06-18.71,0-43.49,8.6-43.49,20.73,0,5.57,5.05,6.58,10.62,11.13,6.07,5.57,9.1,9.11,9.1,16.69,0,15.68-11.63,25.8-25.29,25.8-14.67,0-30.35-10.12-30.35-27.82,0-28.33,24.28-68.78,86.49-68.78,84.47,0,90.54,55.63,90.54,83.45v113.8c0,10.12.51,25.29,17.19,25.29,9.62,0,14.17-3.54,23.78-13.15ZM432,234.18c-44,8.09-97.61,23.26-97.61,65.24,0,20.74,10.11,45,36.92,45,27.31,0,60.69-25.8,60.69-72.33Z"/><path d="M545.72,129l83.45-7.07v21.24l-2.53,25.79h2.53c14.17-28.32,40.47-47,78.4-47,64.74,0,67.77,60.69,67.77,80.92V321.68c0,15.68,7.59,15.68,17.71,15.68H815.3v22.25H700.49V337.36h13.66c10.11,0,17.7,0,17.7-15.68V203.83c0-52.6-24.78-59.68-41-59.68-52.6,0-61.71,77.89-61.71,91.55v86c0,15.68,7.59,15.68,17.71,15.68H661v22.25H545.72V337.36H568c10.11,0,17.7,0,17.7-15.68V167.92c0-15.68-5.06-16.69-22.76-16.69h-17.2Z"/><path d="M943.11,366.69c-72.83,0-115.83-61.71-115.83-122.4s43-122.39,115.83-122.39,115.82,61.7,115.82,122.39S1015.94,366.69,943.11,366.69Zm0-22.25c32.37,0,63.22-21.25,63.22-100.15,0-83.95-34.9-100.14-63.22-100.14s-63.23,16.19-63.23,100.14C879.88,323.19,910.74,344.44,943.11,344.44Z"/><path d="M1154.11,121.9v34.89c23.27-30.35,48.56-34.89,65.25-34.89,74.85,0,107.73,64.23,107.73,126.44,0,59.17-40.46,118.35-107.73,118.35-17.2,0-44.51-3-64.74-36.92h-2l1.54,21.24v61.2c0,15.68,7.59,15.68,17.7,15.68h28.33v22.26H1070.66V427.89h22.25c10.12,0,17.7,0,17.7-15.68V166.91c0-15.68-7.58-15.68-17.7-15.68h-21.75V129Zm60.19,222.54c22.25,0,60.19-14.16,60.19-99.14,0-87.49-35.41-101.15-60.19-101.15-25.8,0-60.19,17.7-60.19,101.66C1154.11,314.6,1183.45,344.44,1214.3,344.44Z"/><path d="M1335,129h114.81v22.26h-14.66c-15.68,0-16.7,7.59-16.7,11.63,0,6.07,2,9.11,4.56,14.67l58.67,135h3l49.57-122.9c4.55-10.62,5.06-16.69,5.06-21.24,0-15.68-16.69-17.2-26.3-17.2h-12.14V129H1600v22.26h-4.55c-15.68,0-22.76,9.61-28.83,23.77l-97.11,226.59c-19.22,44.51-43,53.62-68.28,53.62-32.37,0-44-24.28-44-38.44,0-17.71,13.15-28.83,27.81-28.83,13.66,0,25.29,10.11,25.29,24.27,0,8.1-4,10.12-4,15.68,0,2,0,6.07,8.59,6.07,17.2,0,29.34-26.8,32.88-34.9l13.66-32.37-88-194.72c-7.59-16.69-13.15-20.74-29.84-20.74H1335Z"/></g></g></svg>